<?xml version="1.0" encoding="UTF-8" standalone="no" ?>
<!DOCTYPE svg PUBLIC "-//W3C//DTD SVG 1.1//EN" "http://www.w3.org/Graphics/SVG/1.1/DTD/svg11.dtd">
<svg xmlns="http://www.w3.org/2000/svg" xmlns:xlink="http://www.w3.org/1999/xlink" version="1.1" width="182" height="217" viewBox="0 0 145.6 173.6" xml:space="preserve">
<desc>Created with Fabric.js 3.6.3</desc>
<defs>
</defs>
<g transform="matrix(1 0 0 1 73 87)"  >
<g style=""   >
		<g transform="matrix(0.2 0 0 0.2 14.93 -34.59)"  >
<path style="stroke: none; stroke-width: 1; stroke-dasharray: none; stroke-linecap: butt; stroke-dashoffset: 0; stroke-linejoin: miter; stroke-miterlimit: 4; fill: rgb(255,188,0); fill-rule: nonzero; opacity: 1;"  transform=" translate(-588.45, -334.9)" d="M 513.6 548 l 67.3 -439.2 l 82.4 11.4 L 595.8 561" stroke-linecap="round" />
</g>
		<g transform="matrix(0.2 0 0 0.2 -21.6 -37.21)"  >
<path style="stroke: none; stroke-width: 1; stroke-dasharray: none; stroke-linecap: butt; stroke-dashoffset: 0; stroke-linejoin: miter; stroke-miterlimit: 4; fill: rgb(255,188,0); fill-rule: nonzero; opacity: 1;"  transform=" translate(-401.4, -321.46)" d="M 444.1 544.6 l -45.3 -426.4 c -1.4 -12.8 7.6 -24.3 20.2 -26.3 l 28.5 -4.4 c 13.1 -2 25.3 7 27.3 20.1 L 533.5 488 M 269.3 555.7 L 271 131 c 0.1 -13.1 10.6 -23.7 23.7 -23.9 l 31.2 -0.4 c 13.4 -0.2 24.3 10.7 24.3 24.1 L 349 505.9" stroke-linecap="round" />
</g>
		<g transform="matrix(0.2 0 0 0.2 -48.91 -16.34)"  >
<path style="stroke: none; stroke-width: 1; stroke-dasharray: none; stroke-linecap: butt; stroke-dashoffset: 0; stroke-linejoin: miter; stroke-miterlimit: 4; fill: rgb(255,211,72); fill-rule: nonzero; opacity: 1;"  transform=" translate(-261.6, -428.35)" d="M 368.6 571.9 l -66.9 30.9 c -0.5 0.2 -1.1 0 -1.3 -0.5 L 154.1 286.1 c -0.2 -0.5 0 -1.1 0.5 -1.3 l 66.9 -30.9 c 0.5 -0.2 1.1 0 1.3 0.5 l 146.3 316.3 c 0.2 0.4 0 1 -0.5 1.2 z" stroke-linecap="round" />
</g>
		<g transform="matrix(0.2 0 0 0.2 -53.96 -16.14)"  >
<path style="stroke: none; stroke-width: 1; stroke-dasharray: none; stroke-linecap: butt; stroke-dashoffset: 0; stroke-linejoin: miter; stroke-miterlimit: 4; fill: rgb(255,225,141); fill-rule: nonzero; opacity: 1;"  transform=" translate(-235.73, -429.35)" d="M 330.2 578.7 L 288.4 598 c -0.5 0.2 -1.1 0 -1.3 -0.5 L 140.8 281.3 c -0.2 -0.5 0 -1.1 0.5 -1.3 l 41.7 -19.3 c 0.5 -0.2 1.1 0 1.3 0.5 l 146.3 316.3 c 0.3 0.4 0.1 1 -0.4 1.2 z" stroke-linecap="round" />
</g>
		<g transform="matrix(0.2 0 0 0.2 -24.79 -7.11)"  >
<path style="stroke: none; stroke-width: 1; stroke-dasharray: none; stroke-linecap: butt; stroke-dashoffset: 0; stroke-linejoin: miter; stroke-miterlimit: 4; fill: rgb(255,211,72); fill-rule: nonzero; opacity: 1;"  transform=" translate(-385.1, -475.6)" d="M 396.6 651.1 l -30.2 -0.6 c -13.3 -0.3 -23.8 -11.2 -23.5 -24.5 l 6.2 -302.4 c 0.3 -13.2 11.2 -23.8 24.5 -23.5 l 30.2 0.6 c 13.3 0.3 23.8 11.2 23.5 24.5 l -6.2 302.4 c -0.3 13.2 -11.2 23.8 -24.5 23.5 z" stroke-linecap="round" />
</g>
		<g transform="matrix(0.2 0 0 0.2 -28.5 -6.37)"  >
<path style="stroke: none; stroke-width: 1; stroke-dasharray: none; stroke-linecap: butt; stroke-dashoffset: 0; stroke-linejoin: miter; stroke-miterlimit: 4; fill: rgb(255,225,141); fill-rule: nonzero; opacity: 1;"  transform=" translate(-366.1, -479.38)" d="M 358.6 651.1 l 7.8 -0.6 c -13.3 -0.3 -23.8 -11.2 -23.5 -24.5 l 6.2 -302.4 c 0.3 -13.2 40.2 -28.8 40.2 1.6 l -6.2 302.4 c -0.3 13.2 -11.2 23.8 -24.5 23.5 z" stroke-linecap="round" />
</g>
		<g transform="matrix(0.2 0 0 0.2 17.04 -17.57)"  >
<path style="stroke: none; stroke-width: 1; stroke-dasharray: none; stroke-linecap: butt; stroke-dashoffset: 0; stroke-linejoin: miter; stroke-miterlimit: 4; fill: rgb(255,211,72); fill-rule: nonzero; opacity: 1;"  transform=" translate(-599.26, -422.05)" d="M 666.8 600.8 l -72.9 -11.1 c -0.5 -0.1 -0.9 -0.6 -0.8 -1.1 l 52.3 -344.5 c 0.1 -0.5 0.6 -0.9 1.1 -0.8 l 72.9 11.1 c 0.5 0.1 0.9 0.6 0.8 1.1 L 667.9 600 c -0.1 0.5 -0.6 0.9 -1.1 0.8 z M 566.8 595.7 l -73.7 2.9 c -0.6 0 -1 -0.4 -1 -1 l -13.8 -348.2 c 0 -0.6 0.4 -1 1 -1 l 73.7 -2.9 c 0.6 0 1 0.4 1 1 l 13.8 348.2 c 0 0.5 -0.4 1 -1 1 z" stroke-linecap="round" />
</g>
		<g transform="matrix(0.2 0 0 0.2 -2.56 -17.67)"  >
<path style="stroke: none; stroke-width: 1; stroke-dasharray: none; stroke-linecap: butt; stroke-dashoffset: 0; stroke-linejoin: miter; stroke-miterlimit: 4; fill: rgb(255,225,141); fill-rule: nonzero; opacity: 1;"  transform=" translate(-498.9, -421.55)" d="M 528.8 595.7 l -46 1.8 c -0.6 0 -1 -0.4 -1 -1 L 468 248.4 c 0 -0.6 0.4 -1 1 -1 l 46 -1.8 c 0.6 0 1 0.4 1 1 l 13.8 348.2 c 0 0.4 -0.4 0.9 -1 0.9 z" stroke-linecap="round" />
</g>
		<g transform="matrix(0.2 0 0 0.2 51 -23.62)"  >
<path style="stroke: none; stroke-width: 1; stroke-dasharray: none; stroke-linecap: butt; stroke-dashoffset: 0; stroke-linejoin: miter; stroke-miterlimit: 4; fill: rgb(255,211,72); fill-rule: nonzero; opacity: 1;"  transform=" translate(-773.1, -391.05)" d="M 674.8 540.7 l 68.6 26.9 c 0.5 0.2 1.1 -0.1 1.3 -0.6 L 872 242.7 c 0.2 -0.5 -0.1 -1.1 -0.6 -1.3 l -68.6 -26.9 c -0.5 -0.2 -1.1 0.1 -1.3 0.6 L 674.2 539.4 c -0.2 0.5 0.1 1.1 0.6 1.3 z" stroke-linecap="round" />
</g>
		<g transform="matrix(0.2 0 0 0.2 -1.09 37.17)"  >
<path style="stroke: none; stroke-width: 1; stroke-dasharray: none; stroke-linecap: butt; stroke-dashoffset: 0; stroke-linejoin: miter; stroke-miterlimit: 4; fill: rgb(255,105,75); fill-rule: nonzero; opacity: 1;"  transform=" translate(-506.4, -702.3)" d="M 674 936.7 H 338.9 c -21.7 0 -40.7 -14.6 -46.4 -35.5 L 176.1 467.9 s 157.8 54.5 331 54.5 c 162.6 0 329.6 -54.5 329.6 -54.5 L 720.4 901.2 c -5.7 21 -24.7 35.5 -46.4 35.5 z" stroke-linecap="round" />
</g>
		<g transform="matrix(0.2 0 0 0.2 41.36 37.16)"  >
<path style="stroke: none; stroke-width: 1; stroke-dasharray: none; stroke-linecap: butt; stroke-dashoffset: 0; stroke-linejoin: miter; stroke-miterlimit: 4; fill: rgb(226,58,30); fill-rule: nonzero; opacity: 1;"  transform=" translate(-723.75, -702.25)" d="M 743.4 492.7 l -108.6 404 c -3.6 13.3 -12.5 24 -24.1 30 v 10 H 674 c 21.7 0 40.7 -14.6 46.4 -35.5 l 116.4 -433.4 s -37.2 12.1 -93.4 24.9 z" stroke-linecap="round" />
</g>
		<g transform="matrix(0.2 0 0 0.2 -7.54 37.48)"  >
<path style="stroke: none; stroke-width: 1; stroke-dasharray: none; stroke-linecap: butt; stroke-dashoffset: 0; stroke-linejoin: miter; stroke-miterlimit: 4; fill: rgb(255,255,255); fill-rule: nonzero; opacity: 1;"  transform=" translate(-473.4, -703.89)" d="M 771.1 490.1 s -216.3 31.7 -320.8 27.2 c -154.3 -6.7 -274.6 -49.4 -274.6 -49.4 l 116.4 433.4 c 20.2 54.1 100.2 35.5 100.2 35.5 c -21.7 0 -40.7 -14.6 -46.4 -35.5 l -65 -242 c 3.9 0 7.8 -0.3 11.7 -1.4 c 22.3 -6.4 35.2 -29.6 28.8 -51.9 s -29.6 -35.2 -51.9 -28.8 c -3.5 1 -6.6 2.5 -9.5 4.2 l -12.9 -48.1 c 79.3 13.3 335.4 46.8 524 -43.2 z" stroke-linecap="round" />
</g>
		<g transform="matrix(0.2 0 0 0.2 0.27 0)"  >
<path style="stroke: none; stroke-width: 1; stroke-dasharray: none; stroke-linecap: butt; stroke-dashoffset: 0; stroke-linejoin: miter; stroke-miterlimit: 4; fill: rgb(102,47,10); fill-rule: nonzero; opacity: 1;"  transform=" translate(-513.38, -511.99)" d="M 212.1 622.9 c -7.1 0 -13.6 -4.1 -16.1 -11.3 l -0.7 -1.9 c -3.2 -9.4 1.7 -19.6 11.1 -22.9 c 9.4 -3.3 19.7 1.7 22.9 11.1 s -1.4 20.6 -10.8 23.8 c -2.1 0.9 -4.3 1.2 -6.4 1.2 z M 674 954.7 H 339 c -29.8 0 -56 -20.1 -63.8 -48.9 l -65.8 -248.3 c -2.6 -9.6 3.2 -19.5 12.8 -22 c 9.7 -2.6 19.5 3.2 22 12.8 L 310 896.6 c 3.5 13 15.4 22.1 29 22.1 h 335 c 13.5 0 25.5 -9.1 29 -22.2 l 16.8 -62.5 c 2.6 -9.6 12.5 -15.3 22.1 -12.7 s 15.3 12.5 12.7 22.1 l -16.8 62.5 c -7.8 28.8 -34 48.8 -63.8 48.8 z M 856.6 216.2 L 831 206.1 c -21.6 -8.4 -46.1 2.2 -54.5 23.8 l -55.7 141.8 l 13.7 -90.7 c 1.7 -11 -1 -22.3 -7.7 -31.2 c -6.7 -9.1 -16.3 -14.9 -27.6 -16.6 l -27.4 -4.3 c -2.2 -0.2 -4.6 -0.2 -6.7 -0.2 l 12.2 -81.6 c 1.9 -11.3 -1 -22.6 -7.7 -31.4 c -6.7 -9.1 -16.8 -15.1 -28.1 -16.6 l -34.8 -4.8 c -22.8 -3.1 -43.9 12.7 -47.3 35.3 l -15.4 101 c -4.8 -1.4 -9.8 -2.4 -14.9 -2.2 l -16.8 0.7 l -19.9 -124.3 c -3.6 -22.8 -24.7 -38.6 -47.8 -35 l -28.3 4.3 c -22.6 3.4 -37.9 23.8 -35.3 46.3 l 18.7 162.2 l -25.9 -0.5 h -1 c -1.9 0 -3.6 0.2 -5.5 0.5 L 368 131 c 0 -11.3 -4.3 -22.1 -12.5 -30 c -7.9 -7.9 -19 -12 -30 -12.2 l -31.2 0.5 c -22.6 0.2 -41.3 19 -41.5 41.5 l -1 143.5 l -3.1 -6.7 c -9.6 -20.9 -34.8 -30 -55.7 -20.4 L 167.8 259 c -20.9 9.6 -30.2 34.6 -20.4 55.7 L 215 460.9 c -20.4 -5.8 -32.6 -9.9 -33 -10 c -6.2 -2.2 -13.2 -0.7 -18.1 3.8 c -4.9 4.5 -6.8 11.4 -5.1 17.8 l 23.2 86.4 c 2.6 9.6 12.6 15.3 22.1 12.7 c 9.6 -2.6 15.3 -12.5 12.7 -22.1 L 202 494.7 c 55.2 16 175.1 45.6 305.2 45.6 c 123.4 0 247.5 -30.2 304 -46.1 l -72.3 270.6 c -2.6 9.6 3.1 19.5 12.8 22 c 1.5 0.4 3.1 0.6 4.6 0.6 c 8 0 15.2 -5.3 17.4 -13.4 l 80.6 -301.6 c 1.7 -6.4 -0.2 -13.2 -5 -17.7 s -11.7 -6.1 -18 -4 c -0.4 0.1 -9.4 3 -24.4 7.3 l 73.5 -187.3 c 8.4 -21.7 -2.2 -45.9 -23.8 -54.5 z m -190 48.2 l 27.4 4.3 c 2.2 0.2 3.4 1.7 3.8 2.4 c 0.7 0.7 1.4 2.2 1.2 4.3 l -32.6 214.1 c -13.3 2.3 -27 4.4 -41.1 6.3 l 34.4 -226.4 c 0.4 -3.1 3.7 -5.2 6.9 -5 z m -92 6.3 L 595 135 c 0.7 -3.4 3.6 -5.8 7 -5 l 34.8 4.8 c 2.2 0.2 3.4 1.4 4.1 2.2 c 0.5 0.7 1.4 2.4 1 4.6 l -20.6 136.8 c -0.2 1.4 0 2.6 0.2 4.1 l -33.2 217.7 l -6.3 0.6 l -8.7 -225.9 c 0.4 -1.4 1.1 -2.8 1.3 -4.2 z m -71.7 -5.3 l 27.8 -1 h 0.2 c 1.9 0 3.4 1 4.1 1.7 c 0.7 0.5 1.7 1.9 1.9 4.1 l 9.3 233 c -13 0.7 -26 1.1 -39 1.1 h -0.8 l -9.3 -232.5 c 0 -3.3 2.7 -6.2 5.8 -6.4 z M 422 109.6 l 28.3 -4.3 c 3.4 -0.5 6.2 1.9 6.7 5 l 20.4 128.2 c -10.3 7.9 -16.8 20.6 -16.1 34.6 l 9.1 230.4 c -9.7 -0.4 -19.3 -1 -28.9 -1.7 l 3.7 -176.2 c 0.2 -8.6 -2.4 -17 -7.2 -24.2 c 0 -0.2 0.2 -0.7 0.2 -1 L 417 116.3 c -0.5 -3.1 1.6 -6 5 -6.7 z m -54.5 221.8 v -8.2 c 0.5 -2.9 2.6 -5 5.5 -5 h 0.2 l 30.2 0.5 c 2.2 0 3.4 1.2 4.1 1.9 c 0.7 0.7 1.7 2.2 1.7 4.3 l -3.7 173.5 c -14.4 -1.6 -28.4 -3.4 -42 -5.5 l 3.2 -158.9 c 0.3 -1 0.8 -1.7 0.8 -2.6 z m -78.7 -200.2 c 0 -3.4 2.9 -6 6 -6 l 31.2 -0.5 c 2.6 -0.5 3.6 1.2 4.3 1.7 c 0.7 0.7 1.7 2.2 1.7 4.6 l -0.5 189.4 c -0.2 1 -0.5 1.9 -0.5 2.9 l -2.4 117.1 l -41.3 -89.5 l 1.5 -219.7 z M 180.1 299.5 c -1.4 -3.1 0 -6.7 2.9 -7.9 l 25.2 -11.8 c 0.7 -0.2 1.7 -0.5 2.6 -0.5 c 2.2 0 4.3 1.2 5.3 3.4 L 309 483.4 c -17.7 -3.5 -34.1 -7.1 -48.8 -10.7 l -80.1 -173.2 z m 583.6 169.9 c -14 3.5 -29.8 7.1 -46.9 10.7 l 93 -237 c 1.2 -3.1 4.8 -4.8 7.9 -3.4 l 25.7 10.1 c 3.1 1.2 4.6 4.6 3.4 7.7 l -83.1 211.9 z" stroke-linecap="round" />
</g>
</g>
</g>
</svg>