<?xml version="1.0" standalone="no"?><!DOCTYPE svg PUBLIC "-//W3C//DTD SVG 1.1//EN" "http://www.w3.org/Graphics/SVG/1.1/DTD/svg11.dtd"><svg class="icon" width="200px" height="200.00px" viewBox="0 0 1024 1024" version="1.1" xmlns="http://www.w3.org/2000/svg"><path d="M526.2336 216.7808c101.9904-70.144 238.2336-104.9088 354.0992 15.3088s91.8016 498.3808-251.392 596.736-563.968 0-555.2128-198.912 172.6976-179.2512 260.096-236.0832 132.1984-135.68 192.4096-177.0496z" fill="#F5DD98" /><path d="M628.9408 828.8256c343.1936-98.3552 367.2064-476.5184 251.392-596.736-5.4272-5.632-10.8544-10.8032-16.384-15.7184 3.5328 102.144-9.0112 323.2256-168.4992 439.9104C483.6864 811.1616 122.88 816.4352 74.8032 613.8368c-0.4608 5.2224-0.8704 10.5472-1.1264 16.0768-8.6528 198.912 212.1216 297.2672 555.264 198.912z" fill="#E8C377" /><path d="M381.7472 882.6368c-100.5056 0-183.8592-22.9888-241.5616-68.4544-56.8832-44.8512-85.1456-108.8-81.8176-184.9344 6.8096-155.0336 106.3424-187.9552 186.3168-214.4256 30.0544-9.9328 58.4704-19.3536 80.7424-33.8432 47.1552-30.6688 80.9472-67.328 113.6128-102.8096 25.9072-28.16 50.3808-54.7328 78.3872-73.984 59.8528-41.1648 122.0608-64.1536 179.968-66.4576 72.448-2.7648 137.6256 25.2928 193.8944 83.712 71.168 73.8304 105.9328 289.1776 6.3488 424.0384a15.36512 15.36512 0 0 1-21.504 3.2256 15.36512 15.36512 0 0 1-3.2256-21.504c87.808-118.9376 60.5696-317.7472-3.7376-384.4608-122.6752-127.2832-262.144-62.976-334.336-13.312-25.1904 17.3056-48.5376 42.6496-73.216 69.4784-32.4096 35.1744-69.0688 75.0592-119.4496 107.776-25.6 16.64-55.8592 26.6752-87.8592 37.2224-81.9712 27.136-159.4368 52.7872-165.2736 186.624-2.9184 65.8432 21.3504 120.9856 70.144 159.4368 93.0304 73.3696 262.7072 82.1248 465.5104 24.0128 73.1648-20.992 135.2192-56.1152 184.4224-104.448 6.0416-5.9392 15.7696-5.8368 21.7088 0.2048s5.8368 15.7696-0.2048 21.7088c-52.8896 51.968-119.3472 89.7024-197.4784 112.0768-90.9824 26.1632-175.9744 39.1168-251.392 39.1168z" fill="#000F04" /><path d="M674.6112 328.8576c-1.9456 0-3.9424-0.3584-5.888-1.1776-44.9024-18.6368-45.6704-56.064-39.7824-73.2672 2.7648-8.0384 11.4688-12.288 19.5072-9.5744 7.9872 2.7136 12.2368 11.3152 9.6256 19.3024-1.1776 3.8912-5.5296 23.5008 22.4256 35.1232 7.8336 3.2256 11.5712 12.2368 8.2944 20.0704a15.39072 15.39072 0 0 1-14.1824 9.5232zM852.48 493.6192c-1.3824 0-2.816-0.2048-4.2496-0.6144-8.1408-2.3552-12.9024-10.8544-10.5472-18.9952 4.3008-15.104-12.5952-38.3488-21.504-47.2064a15.36 15.36 0 0 1 0-21.7088 15.36 15.36 0 0 1 21.7088 0c4.096 4.096 39.68 41.0624 29.3376 77.3632a15.34464 15.34464 0 0 1-14.7456 11.1616zM580.352 611.6352c-0.5632 0-1.0752 0-1.6384-0.1024-17.3056-1.8432-31.2832-9.6256-40.3456-22.5792-19.8656-28.2624-10.1888-71.0656-9.0112-75.8784a15.3088 15.3088 0 0 1 18.5856-11.264c8.2432 1.9968 13.2608 10.2912 11.264 18.5344-2.2528 9.3184-5.7856 36.608 4.352 50.9952 3.9936 5.6832 9.8816 8.7552 18.432 9.6256a15.36 15.36 0 0 1 13.6704 16.896 15.44192 15.44192 0 0 1-15.3088 13.7728zM309.8624 643.6352c-1.1264 0-2.2528-0.1024-3.3792-0.3584-11.008-2.4576-19.9168-8.8064-25.7536-18.3296-14.08-23.04-5.632-58.0608-4.608-61.952 2.0992-8.192 10.496-13.1584 18.688-11.0592a15.36 15.36 0 0 1 11.0592 18.688c-2.1504 8.448-4.6592 28.928 1.0752 38.2976 1.4848 2.4576 3.328 3.6864 6.2464 4.352 8.2944 1.8432 13.4656 10.0864 11.6224 18.3296a15.34464 15.34464 0 0 1-14.9504 12.032zM560.8448 799.3856c-1.2288 0-2.5088-0.1536-3.7376-0.4608-41.8304-10.5472-32.1024-76.3392-30.8736-83.8144a15.39072 15.39072 0 0 1 17.664-12.6464c8.3456 1.3824 14.0288 9.3184 12.6464 17.664-3.072 18.8416-1.4848 46.592 8.0896 48.9984 8.2432 2.048 13.2096 10.4448 11.1616 18.6368a15.45216 15.45216 0 0 1-14.9504 11.6224z" fill="#000F04" /></svg>