<?xml version="1.0" encoding="UTF-8" standalone="no" ?>
<!DOCTYPE svg PUBLIC "-//W3C//DTD SVG 1.1//EN" "http://www.w3.org/Graphics/SVG/1.1/DTD/svg11.dtd">
<svg xmlns="http://www.w3.org/2000/svg" xmlns:xlink="http://www.w3.org/1999/xlink" version="1.1" width="232" height="251" viewBox="0 0 232 251" xml:space="preserve">
<desc>Created with Fabric.js 3.6.3</desc>
<defs>
</defs>
<g transform="matrix(1.55 0 0 1.55 115.19 126.19)"  >
<g style=""   >
		<g transform="matrix(0.2 0 0 0.2 0.8 0.13)"  >
<path style="stroke: none; stroke-width: 1; stroke-dasharray: none; stroke-linecap: butt; stroke-dashoffset: 0; stroke-linejoin: miter; stroke-miterlimit: 4; fill: rgb(238,208,161); fill-rule: nonzero; opacity: 1;"  transform=" translate(-516.12, -512.67)" d="M 754.1 121.6 c -0.8 -0.4 -1.4 -0.4 -2.2 -0.6 c -0.5 -0.3 -0.9 -0.8 -1.5 -0.9 c -224 -79.5 -413.7 79.2 -542.8 247.2 c -70.6 91.8 -84.1 203.1 -70 316.9 c 10.2 82.3 47.8 188 130.3 223.7 c 83.7 36.3 218.5 12.9 301.6 -17.2 c 99.2 -35.9 164.9 -132.7 226 -213.8 c 120.3 -159 171.1 -443.5 -41.4 -555.3 z m 76.3 442.6" stroke-linecap="round" />
</g>
		<g transform="matrix(0.2 0 0 0.2 1.68 2.03)"  >
<path style="stroke: none; stroke-width: 1; stroke-dasharray: none; stroke-linecap: butt; stroke-dashoffset: 0; stroke-linejoin: miter; stroke-miterlimit: 4; fill: rgb(227,177,99); fill-rule: nonzero; opacity: 1;"  transform=" translate(-520.62, -522.37)" d="M 280.1 878.4 c 47.3 22 120.5 19.2 185 7.9 l 37.3 -7.6 c 17.3 -4.1 33.5 -8.6 47.3 -13.2 c 92.6 -30.5 154.8 -120.2 211.9 -194.7 c 19.8 -25.8 37.9 -51.9 53.6 -78.9 l 14.8 -27.3 c 22.9 -46.2 37.5 -95.5 38.8 -151.2 c 2.5 -99.5 -26.1 -196.5 -109.6 -252 c -210.5 -55.2 -388.7 96.6 -511.8 256.7 c -68.4 88.6 -83.3 195.6 -71.4 305.4 c 14.2 65.3 45 127.5 104.1 154.9 z" stroke-linecap="round" />
</g>
		<g transform="matrix(0.2 0 0 0.2 11.13 -8.91)"  >
<path style="stroke: none; stroke-width: 1; stroke-dasharray: none; stroke-linecap: butt; stroke-dashoffset: 0; stroke-linejoin: miter; stroke-miterlimit: 4; fill: rgb(208,151,62); fill-rule: nonzero; opacity: 1;"  transform=" translate(-569, -466.4)" d="M 461.4 163 c 35.8 4.4 56.6 29 62.6 73.7 c -31.9 -33.4 -63.9 -48.2 -95.8 -44.5 l 33.2 -29.2 z M 276.2 391 c 7.6 38.8 31.8 61.6 72.5 68.3 c 61.1 10.1 94.6 1.6 94.6 5.8 c 0 4.2 -42.6 34.4 -94.6 34.4 c -34.7 0 -62 -8.1 -81.9 -24.3 l 9.4 -84.2 z m 0 0 M 676.5 769.8 c -35.8 -4.4 -56.6 -29 -62.6 -73.7 c 31.9 33.4 63.9 48.2 95.8 44.5 l -33.2 29.2 z m 185.3 -228 c -7.6 -38.8 -31.8 -61.6 -72.5 -68.3 c -61.1 -10.1 -94.6 -1.6 -94.6 -5.8 c 0 -4.2 42.6 -34.4 94.6 -34.4 c 34.7 0 62 8.1 81.9 24.3 l -9.4 84.2 z m 0 0" stroke-linecap="round" />
</g>
		<g transform="matrix(0.2 0 0 0.2 3.86 6.93)"  >
<path style="stroke: none; stroke-width: 1; stroke-dasharray: none; stroke-linecap: butt; stroke-dashoffset: 0; stroke-linejoin: miter; stroke-miterlimit: 4; fill: rgb(208,151,62); fill-rule: nonzero; opacity: 1;"  transform=" translate(-531.75, -547.5)" d="M 798.7 187.7 c 81.6 135.2 30.1 334.7 -63.4 458.3 c -61.2 81.2 -126.8 169 -226 204.8 c -83.1 30 -197.9 15.4 -281.6 -20.8 c -16.3 -7.1 -30.8 -16.9 -43.7 -28.6 c 20.4 34.5 47.8 63.5 83.8 79.1 c 83.7 36.3 198.5 33.9 281.6 3.8 c 99.2 -35.9 164.9 -106.7 226 -187.8 c 106 -140.1 158.1 -377.8 23.3 -508.8 z" stroke-linecap="round" />
</g>
		<g transform="matrix(0.2 0 0 0.2 -5.21 6.52)"  >
<path style="stroke: none; stroke-width: 1; stroke-dasharray: none; stroke-linecap: butt; stroke-dashoffset: 0; stroke-linejoin: miter; stroke-miterlimit: 4; fill: rgb(176,112,29); fill-rule: nonzero; opacity: 1;"  transform=" translate(-485.34, -545.41)" d="M 402.5 365.1 L 370 340.7 c -6.6 -5 -17.2 -1 -21.1 5.5 c -4.6 7.9 -1.1 16 5.5 21.1 l 32.4 24.4 c 6.6 5 17.2 1 21.1 -5.5 c 4.6 -7.8 1.2 -16 -5.4 -21.1 z M 239.8 728.5 c -11.1 -16.3 -37.8 -0.9 -26.6 15.5 c 10.3 15.1 21.6 29.5 34.1 42.9 c 13.5 14.5 35.2 -7.2 21.8 -21.7 c -10.8 -11.5 -20.6 -23.6 -29.3 -36.7 z M 542 717.3 c -14 -14.1 -35.7 7.6 -21.7 21.7 c 7.3 7.2 13.4 15 18.8 23.8 c 10.4 16.8 37.1 1.3 26.6 -15.5 c -6.8 -10.7 -14.8 -20.8 -23.7 -30 z M 364.9 567.4 c -6.4 -5.3 -15.5 -6.2 -21.8 0 c -5.5 5.5 -6.4 16.4 0 21.8 c 8.4 7 16.7 14.1 25.1 21.1 c 6.4 5.3 15.5 6.2 21.8 0 c 5.5 -5.5 6.4 -16.4 0 -21.7 c -8.4 -7.2 -16.7 -14.2 -25.1 -21.2 z m 213.2 -56 c -4.8 -6.7 -13.5 -9.9 -21.1 -5.5 c -6.7 3.9 -10.3 14.2 -5.5 21.1 c 8.1 11.6 17.3 22.4 27.5 32.3 c 14.2 13.7 36.1 -8 21.7 -21.7 c -8.2 -8.1 -16 -16.7 -22.6 -26.2 z m -4.7 -103.7 c 6.6 5.1 17.3 1 21.1 -5.5 c 4.7 -8 1 -15.9 -5.5 -21.1 c -10.9 -8.4 -21.8 -16.8 -32.7 -25.3 c -6.6 -5.1 -17.3 -1 -21.1 5.5 c -4.7 8 -1 15.9 5.5 21.1 c 11 8.4 21.9 16.9 32.7 25.3 z m 151.4 -104.1 c -5.1 -6.6 -16.4 -5.3 -21.7 0 c -6.5 6.5 -5.1 15.1 0 21.8 c 10.3 13.2 20.6 26.3 30.9 39.6 c 5.1 6.6 16.4 5.3 21.8 0 c 6.5 -6.5 5.1 -15.1 0 -21.8 c -10.4 -13.3 -20.7 -26.4 -31 -39.6 z m 0 0" stroke-linecap="round" />
</g>
		<g transform="matrix(0.2 0 0 0.2 0.78 0.03)"  >
<path style="stroke: none; stroke-width: 1; stroke-dasharray: none; stroke-linecap: butt; stroke-dashoffset: 0; stroke-linejoin: miter; stroke-miterlimit: 4; fill: rgb(51,51,51); fill-rule: nonzero; opacity: 1;"  transform=" translate(-516.02, -512.17)" d="M 754 121.1 c -0.8 -0.4 -1.4 -0.4 -2.2 -0.6 c -0.5 -0.3 -0.9 -0.8 -1.5 -0.9 c -224 -79.5 -413.7 79.2 -542.8 247.2 c -70.6 91.8 -84.1 203.1 -70 316.9 c 10.2 82.3 47.8 188 130.3 223.7 c 83.7 36.3 218.5 12.9 301.6 -17.2 c 99.2 -35.9 164.9 -132.7 226 -213.8 C 915.7 517.5 966.5 232.9 754 121.1 z M 187.3 473.2 c 15 -42.6 38.9 -82 74.7 -124.2 c 46.9 -55.3 100.1 -108.1 159.1 -148.1 l 26.1 -16.5 c 49.6 -29.5 102.9 -49.2 159.9 -53.7 l 42.5 -0.4 c 29.3 1.7 59.3 7.6 90.2 18.3 c 98.8 52.8 132 156.8 129.4 263.8 c -1.3 55.7 -15.9 105.1 -38.8 151.2 l -14.8 27.3 c -15.6 27 -33.7 53 -53.6 78.9 c -57.1 74.5 -119.3 164.2 -211.9 194.7 c -13.9 4.6 -30 9.2 -47.3 13.2 l -37.3 7.6 c -64.5 11.3 -137.6 14.1 -185 -7.9 c -93.1 -43.1 -115.9 -172.6 -114.7 -264.6 c 0.5 -39.9 4.1 -74.9 12 -107.4 l 9.5 -32.2 z" stroke-linecap="round" />
</g>
</g>
</g>
</svg>