<?xml version="1.0" encoding="UTF-8" standalone="no" ?>
<!DOCTYPE svg PUBLIC "-//W3C//DTD SVG 1.1//EN" "http://www.w3.org/Graphics/SVG/1.1/DTD/svg11.dtd">
<svg xmlns="http://www.w3.org/2000/svg" xmlns:xlink="http://www.w3.org/1999/xlink" version="1.1" width="129" height="175" viewBox="0 0 129 175" xml:space="preserve">
<desc>Created with Fabric.js 3.6.3</desc>
<defs>
</defs>
<g transform="matrix(1 0 0 1 65 88)"  >
<g style=""   >
		<g transform="matrix(0.2 0 0 0.2 -0.1 14.42)"  >
<path style="stroke: none; stroke-width: 1; stroke-dasharray: none; stroke-linecap: butt; stroke-dashoffset: 0; stroke-linejoin: miter; stroke-miterlimit: 4; fill: rgb(69,90,100); fill-rule: nonzero; opacity: 1;"  transform=" translate(-511.5, -585.85)" d="M 363.2 459.3 l 14.9 -34.7 l -68 -29.2 l 64 -104.7 l -50.4 -79.2 l -31.9 20.3 l 37.7 59.3 L 255.1 413 z M 299.5 646.1 l 22.3 -67 l 50.8 -5.1 l -3.8 -37.6 l -75.1 7.6 l -28 84 l -42.1 54.1 l 29.8 23.2 z M 334.1 728.7 l -25 156.2 l -57.2 45.8 l 23.6 29.5 l 68.6 -54.9 l 25.4 -158.5 l 39.7 -39.8 l -26.7 -26.7 z M 659.8 459.3 L 767.9 413 l -74.4 -121.9 l 37.7 -59.3 l -31.9 -20.3 l -50.3 79.2 l 63.9 104.7 l -68 29.2 z M 729.3 544 l -75.1 -7.6 l -3.8 37.6 l 50.8 5.1 l 22.3 67 l 46.1 59.2 l 29.8 -23.2 l -42.1 -54.1 z M 688.9 728.7 l -48.4 -48.4 l -26.7 26.7 l 39.7 39.8 l 25.4 158.5 l 68.6 54.9 l 23.6 -29.5 l -57.2 -45.8 z" stroke-linecap="round" />
</g>
		<g transform="matrix(0.2 0 0 0.2 -0.1 -66.07)"  >
<path style="stroke: none; stroke-width: 1; stroke-dasharray: none; stroke-linecap: butt; stroke-dashoffset: 0; stroke-linejoin: miter; stroke-miterlimit: 4; fill: rgb(77,182,172); fill-rule: nonzero; opacity: 1;"  transform=" translate(-511.5, -173.74)" d="M 815.5 64.4 C 773.8 65.7 663 69.1 582.8 145 c -32.5 30.8 -56.9 71.5 -71.3 118.2 c -14.4 -46.7 -38.9 -87.4 -71.3 -118.2 c -80.2 -75.9 -191 -79.3 -232.7 -80.6 c -8.8 -0.3 -17.7 -0.3 -26.4 0 l 1.2 37.7 c 7.9 -0.3 16 -0.3 24 0 c 37.8 1.2 138.2 4.3 207.9 70.4 c 29.8 28.2 51.9 66.6 64 110.8 l 33.3 -9.1 l 33.3 9.1 c 12.1 -44.3 34.2 -82.6 64 -110.8 c 69.7 -66 170.1 -69.2 207.9 -70.4 c 8 -0.3 16.1 -0.3 24 0 l 1.2 -37.7 c -8.7 -0.3 -17.6 -0.3 -26.4 0 z" stroke-linecap="round" />
</g>
		<g transform="matrix(0.2 0 0 0.2 -0.1 -35.81)"  >
<path style="stroke: none; stroke-width: 1; stroke-dasharray: none; stroke-linecap: butt; stroke-dashoffset: 0; stroke-linejoin: miter; stroke-miterlimit: 4; fill: rgb(0,105,92); fill-rule: nonzero; opacity: 1;"  transform=" translate(-511.5, -328.65)" d="M 571.3 416.8 H 451.7 c -6.9 0 -12.6 -5.7 -12.6 -12.6 v -91.3 c 0 -39.8 32.6 -72.4 72.4 -72.4 c 39.8 0 72.4 32.6 72.4 72.4 v 91.3 c 0 6.9 -5.7 12.6 -12.6 12.6 z" stroke-linecap="round" />
</g>
		<g transform="matrix(0.2 0 0 0.2 -0.1 25.86)"  >
<path style="stroke: none; stroke-width: 1; stroke-dasharray: none; stroke-linecap: butt; stroke-dashoffset: 0; stroke-linejoin: miter; stroke-miterlimit: 4; fill: rgb(38,166,154); fill-rule: nonzero; opacity: 1;"  transform=" translate(-511.5, -644.4)" d="M 367 416.8 c -24.5 28.3 -15.8 53.2 12.6 264.3 c 14.1 105.1 19.6 155.8 62.9 201.4 c 11.3 11.9 28.5 29.9 46.9 39 V 367.3 c -23.6 1.8 -44.8 6.3 -61.7 12.8 c -24 6.9 -46 19.7 -60.7 36.7 z M 656 416.8 c -14.7 -17 -36.7 -29.8 -60.8 -36.7 c -16.8 -6.5 -38.1 -11 -61.7 -12.8 v 554.2 c 18.4 -9.1 35.6 -27.1 46.9 -39 c 43.3 -45.6 48.8 -96.3 62.9 -201.4 c 28.5 -211.2 37.2 -236 12.7 -264.3 z" stroke-linecap="round" />
</g>
		<g transform="matrix(0.2 0 0 0.2 -0.1 26.32)"  >
<path style="stroke: none; stroke-width: 1; stroke-dasharray: none; stroke-linecap: butt; stroke-dashoffset: 0; stroke-linejoin: miter; stroke-miterlimit: 4; fill: rgb(0,137,123); fill-rule: nonzero; opacity: 1;"  transform=" translate(-511.5, -646.75)" d="M 511.5 366.4 c -7.5 0 -14.9 0.3 -22 0.8 v 554.2 c 6.7 3.3 13.5 5.4 20.2 5.7 h 3.6 c 6.8 -0.2 13.6 -2.4 20.2 -5.7 V 367.3 c -7.1 -0.6 -14.5 -0.9 -22 -0.9 z" stroke-linecap="round" />
</g>
</g>
</g>
</svg>