<?xml version="1.0" encoding="UTF-8" standalone="no" ?>
<!DOCTYPE svg PUBLIC "-//W3C//DTD SVG 1.1//EN" "http://www.w3.org/Graphics/SVG/1.1/DTD/svg11.dtd">
<svg xmlns="http://www.w3.org/2000/svg" xmlns:xlink="http://www.w3.org/1999/xlink" version="1.1" width="147" height="175" viewBox="0 0 147 175" xml:space="preserve">
<desc>Created with Fabric.js 3.6.3</desc>
<defs>
</defs>
<g transform="matrix(1 0 0 1 74 88)"  >
<g style=""   >
		<g transform="matrix(0.2 0 0 0.2 -0.01 -7.07)"  >
<path style="stroke: none; stroke-width: 1; stroke-dasharray: none; stroke-linecap: butt; stroke-dashoffset: 0; stroke-linejoin: miter; stroke-miterlimit: 4; fill: rgb(55,71,79); fill-rule: nonzero; opacity: 1;"  transform=" translate(-511.96, -475.78)" d="M 287.4 152 l -89.8 -67.4 c -8 -6 -19.5 -4.4 -25.5 3.6 s -4.4 19.5 3.6 25.5 l 75.3 56.5 v 129.3 l 100.7 53.7 l 17.1 -32.1 l -81.4 -43.4 V 152 z M 262 483.5 l 80.7 -32.3 l -13.5 -33.8 L 227.8 458 l -18.3 195 l -65.1 30.4 c -9.1 4.3 -13.1 15.1 -8.8 24.2 c 4.3 9.1 15.1 13.1 24.2 8.8 l 84 -39.2 L 262 483.5 z M 305.8 777.5 l -124.7 58.4 c -9.1 4.3 -13 15.1 -8.8 24.2 c 4.3 9.1 15.1 13 24.2 8.8 l 142.4 -66.7 l 21.4 -142.3 l -36 -5.4 l -18.5 123 z M 773 299.5 V 170.2 l 75.3 -56.5 c 8 -6 9.7 -17.4 3.6 -25.5 c -6 -8 -17.4 -9.7 -25.5 -3.6 L 736.6 152 v 125.7 l -81.4 43.4 l 17.1 32.1 L 773 299.5 z M 879.6 683.3 l -65.1 -30.4 l -18.3 -195 l -101.4 -40.6 l -13.5 33.8 l 80.7 32.3 L 780.1 677 l 84 39.2 c 9.1 4.3 20 0.3 24.2 -8.8 c 4.3 -9 0.4 -19.9 -8.7 -24.1 z M 842.9 835.9 l -124.7 -58.4 l -18.5 -123 l -36 5.4 l 21.4 142.3 l 142.4 66.7 c 9.1 4.3 20 0.3 24.2 -8.8 c 4.3 -9.1 0.4 -20 -8.8 -24.2 z M 561.1 312.9 H 463 c -18.1 0 -32.9 -14.8 -32.9 -32.9 v -49.6 c 0 -18.1 14.8 -32.9 32.9 -32.9 h 98.1 c 18.1 0 32.9 14.8 32.9 32.9 V 280 c 0 18.1 -14.8 32.9 -32.9 32.9 z" stroke-linecap="round" />
</g>
		<g transform="matrix(0.2 0 0 0.2 0 -25.36)"  >
<path style="stroke: none; stroke-width: 1; stroke-dasharray: none; stroke-linecap: butt; stroke-dashoffset: 0; stroke-linejoin: miter; stroke-miterlimit: 4; fill: rgb(46,125,50); fill-rule: nonzero; opacity: 1;"  transform=" translate(-512, -382.15)" d="M 532.7 266.8 h -41.5 c -100.4 0 -182.6 82.2 -182.6 182.6 c 0 26.4 21.6 48.1 48.1 48.1 h 310.6 c 26.4 0 48.1 -21.6 48.1 -48.1 c 0 -100.4 -82.2 -182.6 -182.7 -182.6 z" stroke-linecap="round" />
</g>
		<g transform="matrix(0.2 0 0 0.2 0 13.87)"  >
<path style="stroke: none; stroke-width: 1; stroke-dasharray: none; stroke-linecap: butt; stroke-dashoffset: 0; stroke-linejoin: miter; stroke-miterlimit: 4; fill: rgb(9,53,11); fill-rule: nonzero; opacity: 1;"  transform=" translate(-512, -583)" d="M 387.3 583 a 124.7 130.5 0 1 0 249.4 0 a 124.7 130.5 0 1 0 -249.4 0 Z" stroke-linecap="round" />
</g>
		<g transform="matrix(0.2 0 0 0.2 0 42.19)"  >
<path style="stroke: none; stroke-width: 1; stroke-dasharray: none; stroke-linecap: butt; stroke-dashoffset: 0; stroke-linejoin: miter; stroke-miterlimit: 4; fill: rgb(139,195,74); fill-rule: nonzero; opacity: 1;"  transform=" translate(-512, -728)" d="M 626.2 497.5 V 921 c 16.1 -12.4 30 -27.4 41.4 -44.3 V 497.5 h -41.4 z M 559.6 527.8 l -23.3 46.1 v 384.6 c 14.4 -1.9 28.2 -5.3 41.4 -10.3 V 507.3 c -7.6 5.1 -13.9 12 -18.1 20.5 z M 446.4 507.3 v 440.8 c 13.2 4.9 27 8.4 41.4 10.3 V 573.8 l -23.3 -46.1 c -4.3 -8.4 -10.6 -15.3 -18.1 -20.4 z M 356.4 876.7 c 11.3 16.9 25.3 31.9 41.4 44.3 V 497.5 h -41.4 v 379.2 z" stroke-linecap="round" />
</g>
		<g transform="matrix(0.2 0 0 0.2 0 49.79)"  >
<path style="stroke: none; stroke-width: 1; stroke-dasharray: none; stroke-linecap: butt; stroke-dashoffset: 0; stroke-linejoin: miter; stroke-miterlimit: 4; fill: rgb(46,125,50); fill-rule: nonzero; opacity: 1;"  transform=" translate(-512, -766.9)" d="M 512 621.8 l -24.3 -48 v 384.6 c 8 1 16.1 1.6 24.3 1.6 s 16.3 -0.6 24.3 -1.6 V 573.8 l -24.3 48 z" stroke-linecap="round" />
</g>
		<g transform="matrix(0.2 0 0 0.2 0 41.17)"  >
<path style="stroke: none; stroke-width: 1; stroke-dasharray: none; stroke-linecap: butt; stroke-dashoffset: 0; stroke-linejoin: miter; stroke-miterlimit: 4; fill: rgb(67,160,71); fill-rule: nonzero; opacity: 1;"  transform=" translate(-512, -722.8)" d="M 577.6 507.3 v 440.8 c 17.6 -6.6 33.9 -15.8 48.6 -27.1 V 497.5 h -17.4 c -11.3 0 -22.1 3.6 -31.2 9.8 z M 684.4 497.5 h -16.8 v 379.2 c 18.9 -28.4 30.4 -62.2 31.3 -98.8 L 716 531.4 c 1.3 -18.3 -13.2 -33.9 -31.6 -33.9 z M 397.8 497.5 V 921 c 14.6 11.3 31 20.5 48.6 27.1 V 507.3 c -9 -6.2 -19.8 -9.8 -31.2 -9.8 h -17.4 z M 308 531.4 l 17.1 246.5 c 1 36.5 12.4 70.4 31.3 98.8 V 497.5 h -16.8 c -18.4 0 -32.9 15.6 -31.6 33.9 z" stroke-linecap="round" />
</g>
		<g transform="matrix(0.2 0 0 0.2 0 -76.83)"  >
<path style="stroke: none; stroke-width: 1; stroke-dasharray: none; stroke-linecap: butt; stroke-dashoffset: 0; stroke-linejoin: miter; stroke-miterlimit: 4; fill: rgb(55,71,79); fill-rule: nonzero; opacity: 1;"  transform=" translate(-512, -118.65)" d="M 587.4 64 c -4.2 40.9 -36.4 72.8 -75.4 72.8 s -71.2 -31.9 -75.4 -72.8 h -36.5 c 4.4 61 52.9 109.3 111.9 109.3 S 619.4 125 623.9 64 h -36.5 z" stroke-linecap="round" />
</g>
		<g transform="matrix(0.2 0 0 0.2 0 -64.98)"  >
<path style="stroke: none; stroke-width: 1; stroke-dasharray: none; stroke-linecap: butt; stroke-dashoffset: 0; stroke-linejoin: miter; stroke-miterlimit: 4; fill: rgb(55,71,79); fill-rule: nonzero; opacity: 1;"  transform=" translate(-512, -179.3)" d="M 493.8 161.1 h 36.4 v 36.4 h -36.4 z" stroke-linecap="round" />
</g>
</g>
</g>
</svg>