<?xml version="1.0" encoding="UTF-8" standalone="no" ?>
<!DOCTYPE svg PUBLIC "-//W3C//DTD SVG 1.1//EN" "http://www.w3.org/Graphics/SVG/1.1/DTD/svg11.dtd">
<svg xmlns="http://www.w3.org/2000/svg" xmlns:xlink="http://www.w3.org/1999/xlink" version="1.1" width="139" height="517" viewBox="0 0 49.64 184.64" xml:space="preserve">
<desc>Created with Fabric.js 3.6.3</desc>
<defs>
</defs>
<g transform="matrix(1 0 0 1 506.13 200.13)"  >
<line style="stroke: rgb(0,0,0); stroke-width: 2; stroke-dasharray: none; stroke-linecap: butt; stroke-dashoffset: 0; stroke-linejoin: miter; stroke-miterlimit: 4; fill: rgb(0,0,0); fill-rule: nonzero; opacity: 1;"  x1="0" y1="0" x2="0" y2="0" />
</g>
<g transform="matrix(1 0 0 1 15.84 92.08)"  >
<g style=""   >
		<g transform="matrix(1 0 0 1 -33.97 -86.17)"  >
<line style="stroke: rgb(0,0,0); stroke-width: 2; stroke-dasharray: none; stroke-linecap: butt; stroke-dashoffset: 0; stroke-linejoin: miter; stroke-miterlimit: 4; fill: rgb(0,0,0); fill-rule: nonzero; opacity: 1;"  x1="0" y1="0" x2="0" y2="0" />
</g>
		<g transform="matrix(0.14 0 0 0.18 8.6 0.2)"  >
<path style="stroke: none; stroke-width: 1; stroke-dasharray: none; stroke-linecap: butt; stroke-dashoffset: 0; stroke-linejoin: miter; stroke-miterlimit: 4; fill: rgb(102,47,10); fill-rule: nonzero; opacity: 1;"  transform=" translate(-512, -512)" d="M 690.2 512 l 2.51 -378.98 q 0 -27.61 -7.53 -50.2 q -10.04 -25.09 -27.61 -42.66 q -22.59 -20.08 -45.18 -30.12 q -22.59 -10.04 -50.19 -10.04 l -100.4 0 q -52.7 5.02 -90.35 42.67 q -37.65 35.13 -37.65 90.35 l -2.51 378.98 l 0 0 l 2.51 378.98 q 0 55.22 37.65 90.35 q 37.65 37.65 90.35 42.67 l 100.4 0 q 27.6 0 50.19 -10.04 q 22.59 -10.04 45.18 -30.12 q 17.57 -17.57 27.61 -42.66 q 7.53 -22.59 7.53 -50.2 l -2.51 -378.98 Z" stroke-linecap="round" />
</g>
		<g transform="matrix(0.14 0 0 0.17 8.33 0.45)"  >
<linearGradient id="SVGID_276" gradientUnits="userSpaceOnUse" gradientTransform="matrix(1 0 0 1 370.56 0)"  x1="0" y1="512" x2="282.87999999999994" y2="512">
<stop offset="0%" style="stop-color:rgba(255, 188, 0, 1);"/>
<stop offset="48.293%" style="stop-color:rgba(255, 188, 0, 1);"/>
<stop offset="51.707%" style="stop-color:rgba(255, 205, 47, 1);"/>
<stop offset="100%" style="stop-color:rgba(255, 205, 47, 1);"/>
</linearGradient>
<path style="stroke: none; stroke-width: 1; stroke-dasharray: none; stroke-linecap: butt; stroke-dashoffset: 0; stroke-linejoin: miter; stroke-miterlimit: 4; fill: url(#SVGID_276); fill-rule: nonzero; opacity: 1;"  transform=" translate(-512, -512)" d="M 653.44 939.14 q 0 36.77 -28.29 59.4 q -22.63 25.46 -62.23 25.46 l -107.49 0 q -31.12 0 -59.41 -25.46 q -25.46 -25.46 -25.46 -59.4 l 0 -854.28 q 0 -33.94 25.46 -59.4 q 28.29 -25.46 59.41 -25.46 l 107.49 0 q 39.6 0 62.23 25.46 q 28.29 22.63 28.29 59.4 l 0 854.28 Z" stroke-linecap="round" />
</g>
</g>
</g>
</svg>