<?xml version="1.0" encoding="UTF-8" standalone="no" ?>
<!DOCTYPE svg PUBLIC "-//W3C//DTD SVG 1.1//EN" "http://www.w3.org/Graphics/SVG/1.1/DTD/svg11.dtd">
<svg xmlns="http://www.w3.org/2000/svg" xmlns:xlink="http://www.w3.org/1999/xlink" version="1.1" width="125" height="181" viewBox="0 0 125 181" xml:space="preserve">
<desc>Created with Fabric.js 3.6.3</desc>
<defs>
</defs>
<g transform="matrix(1 0 0 1 63 91)"  >
<g style=""   >
		<g transform="matrix(0.2 0 0 0.2 0 0)"  >
<path style="stroke: none; stroke-width: 1; stroke-dasharray: none; stroke-linecap: butt; stroke-dashoffset: 0; stroke-linejoin: miter; stroke-miterlimit: 4; fill: rgb(191,131,79); fill-rule: nonzero; opacity: 1;"  transform=" translate(-512, -512)" d="M 512 967.67 c 185.88 0 312.72 -152 312.72 -339.56 c 0 -154.86 -19.12 -571.78 -312.72 -571.78 S 199.28 467 199.28 628.11 c 0 187.53 126.84 339.56 312.72 339.56 z" stroke-linecap="round" />
</g>
		<g transform="matrix(0.2 0 0 0.2 0 0)"  >
<path style="stroke: none; stroke-width: 1; stroke-dasharray: none; stroke-linecap: butt; stroke-dashoffset: 0; stroke-linejoin: miter; stroke-miterlimit: 4; fill: rgb(51,51,51); fill-rule: nonzero; opacity: 1;"  transform=" translate(-512.02, -512)" d="M 512 975.67 c -46.41 0 -90.34 -9.21 -130.58 -27.39 A 302.64 302.64 0 0 1 280 873.55 c -57.2 -64 -88.69 -151.13 -88.69 -245.44 c 0 -107.57 9.36 -202.43 27.82 -281.95 a 8 8 0 1 1 15.59 3.62 c -18.19 78.33 -27.41 172 -27.41 278.33 c 0 90.37 30.05 173.75 84.62 234.77 A 286.77 286.77 0 0 0 388 933.7 c 38.15 17.23 79.87 26 124 26 c 62.45 0 121.2 -18 169.9 -52.12 c 46.68 -32.69 83.67 -79.56 107 -135.54 a 8 8 0 1 1 14.77 6.14 c -24.45 58.79 -63.37 108.07 -112.55 142.51 c -51.45 35.96 -113.37 54.98 -179.12 54.98 z M 812.55 734.2 a 8.12 8.12 0 0 1 -2 -0.25 a 8 8 0 0 1 -5.75 -9.74 a 386.46 386.46 0 0 0 11.92 -96.1 c 0 -135.91 -15.42 -250.78 -45.84 -341.42 C 721.35 139.14 634.26 64.33 512 64.33 C 457.66 64.33 409.79 79 369.73 108 c -35.32 25.57 -65.43 62.81 -89.49 110.69 a 8 8 0 0 1 -14.3 -7.18 C 320.36 103.24 403.15 48.33 512 48.33 c 70.22 0 130.2 23.48 178.28 69.8 c 40.11 38.65 72.33 93.65 95.77 163.47 c 31 92.28 46.67 208.86 46.67 346.51 a 402.19 402.19 0 0 1 -12.43 100.08 a 8 8 0 0 1 -7.74 6.01 z M 239.42 308.93 a 7.78 7.78 0 0 1 -2.32 -0.35 a 8 8 0 0 1 -5.34 -10 c 4.37 -14.4 9.14 -28.39 14.2 -41.59 a 8 8 0 1 1 14.94 5.73 c -4.92 12.84 -9.57 26.46 -13.83 40.5 a 8 8 0 0 1 -7.65 5.71 z" stroke-linecap="round" />
</g>
		<g transform="matrix(0.2 0 0 0.2 9.53 7.83)"  >
<path style="stroke: none; stroke-width: 1; stroke-dasharray: none; stroke-linecap: butt; stroke-dashoffset: 0; stroke-linejoin: miter; stroke-miterlimit: 4; fill: rgb(165,103,49); fill-rule: nonzero; opacity: 1;"  transform=" translate(-560.82, -552.11)" d="M 388.44 568.89 c 1.15 -17 15.73 -30.51 33.56 -30.51 s 32.4 13.47 33.56 30.51 z M 666.07 565.84 c 1.16 -17 15.74 -30.51 33.56 -30.51 s 32.37 13.47 33.56 30.51 z" stroke-linecap="round" />
</g>
		<g transform="matrix(0.2 0 0 0.2 -8.04 -9.74)"  >
<path style="stroke: none; stroke-width: 1; stroke-dasharray: none; stroke-linecap: butt; stroke-dashoffset: 0; stroke-linejoin: miter; stroke-miterlimit: 4; fill: rgb(51,51,51); fill-rule: nonzero; opacity: 1;"  transform=" translate(-470.81, -462.11)" d="M 470.81 462.11 m -27.46 0 a 27.46 27.46 0 1 0 54.92 0 a 27.46 27.46 0 1 0 -54.92 0 Z" stroke-linecap="round" />
</g>
		<g transform="matrix(0.2 0 0 0.2 25.92 -9.74)"  >
<path style="stroke: none; stroke-width: 1; stroke-dasharray: none; stroke-linecap: butt; stroke-dashoffset: 0; stroke-linejoin: miter; stroke-miterlimit: 4; fill: rgb(51,51,51); fill-rule: nonzero; opacity: 1;"  transform=" translate(-644.72, -462.11)" d="M 644.72 462.11 m -27.46 0 a 27.46 27.46 0 1 0 54.92 0 a 27.46 27.46 0 1 0 -54.92 0 Z" stroke-linecap="round" />
</g>
</g>
</g>
</svg>