<?xml version="1.0" encoding="UTF-8" standalone="no" ?>
<!DOCTYPE svg PUBLIC "-//W3C//DTD SVG 1.1//EN" "http://www.w3.org/Graphics/SVG/1.1/DTD/svg11.dtd">
<svg xmlns="http://www.w3.org/2000/svg" xmlns:xlink="http://www.w3.org/1999/xlink" version="1.1" width="323" height="329" viewBox="0 0 323 329" xml:space="preserve">
<desc>Created with Fabric.js 3.6.3</desc>
<defs>
</defs>
<g transform="matrix(2.14 0 0 2.14 161.75 165.75)"  >
<g style=""   >
		<g transform="matrix(0.2 0 0 0.2 -0.4 -0.26)"  >
<path style="stroke: none; stroke-width: 1; stroke-dasharray: none; stroke-linecap: butt; stroke-dashoffset: 0; stroke-linejoin: miter; stroke-miterlimit: 4; fill: rgb(227,177,99); fill-rule: nonzero; opacity: 1;"  transform=" translate(-509.95, -510.66)" d="M 647.2 127 c 136.2 23.3 243.1 152.7 243.1 308.4 c 0 84.7 -24.2 121.8 -109.1 192.5 c -4.8 4 -27.8 28.6 -34 33.8 c -43.1 36 -69.7 60.9 -91.5 93.5 c -91.5 136.6 -318.3 192 -450.3 97.5 c -90.3 -64.7 -92.7 -117.8 -45 -204.2 c 14 -25.3 17.1 -31.4 21.1 -41.9 c 7 -18.8 7.5 -35.9 4.4 -83.1 c -5.1 -78.3 -0.4 -120 29.7 -172.4 c 27.2 -47.2 59.8 -70.7 101 -94.1 c 8.4 -4.8 15.9 -5.8 32.2 -14.1 c 28 -14.2 39.2 -23.9 53.8 -35.9 c 8.4 -7 12.5 -8.3 16.6 -11.7 c 80.1 -65.3 132.5 -84.6 228 -68.3 z" stroke-linecap="round" />
</g>
		<g transform="matrix(0.2 0 0 0.2 -31.41 -12.72)"  >
<path style="stroke: none; stroke-width: 1; stroke-dasharray: none; stroke-linecap: butt; stroke-dashoffset: 0; stroke-linejoin: miter; stroke-miterlimit: 4; fill: rgb(208,151,62); fill-rule: nonzero; opacity: 1;"  transform=" translate(-351.2, -446.85)" d="M 433.8 236.5 c 44.7 5.5 70.8 36.2 78.2 92.1 c -39.9 -41.8 -79.9 -60.3 -119.8 -55.6 l 41.6 -36.5 z M 202.2 521.5 c 9.5 48.5 39.7 77 90.6 85.4 c 76.4 12.6 118.3 2 118.3 7.3 s -53.2 43 -118.3 43 c -43.4 0 -77.5 -10.1 -102.4 -30.4 l 11.8 -105.3 z" stroke-linecap="round" />
</g>
		<g transform="matrix(0.2 0 0 0.2 0 -15.64)"  >
<path style="stroke: none; stroke-width: 1; stroke-dasharray: none; stroke-linecap: butt; stroke-dashoffset: 0; stroke-linejoin: miter; stroke-miterlimit: 4; fill: rgb(238,208,161); fill-rule: nonzero; opacity: 1;"  transform=" translate(-512, -431.93)" d="M 894.3 392.2 C 855.5 290.1 766.4 214 664.9 196.6 c -95.4 -16.3 -152.6 -2.3 -232.6 63 c -4.1 3.4 -6.6 5.4 -15 12.3 c -14.6 12.1 -27.6 19.7 -55.6 34 c -16.3 8.3 -21.8 11.2 -30.2 15.9 c -41.2 23.4 -71 51.6 -98.2 98.9 c -30.1 52.4 -34.8 94.1 -29.7 172.4 c 3.1 47.2 -47.8 80.1 -54.8 98.9 c -3.9 10.6 -0.8 16.9 -14.7 42.2 c -1.6 2.8 -3 5.6 -4.4 8.4 c -0.3 -27.7 10.9 -58 30.8 -94.1 c 14 -25.3 17.1 -31.4 21.1 -41.9 c 7 -18.8 7.5 -35.9 4.4 -83.1 c -5.1 -78.3 -0.4 -120 29.7 -172.4 c 27.2 -47.2 60.2 -69 101.4 -92.4 c 8.4 -4.8 15 -7.4 31.3 -15.7 c 28 -14.2 44.3 -25.4 58.8 -37.5 c 8.4 -7 10.7 -8.5 14.8 -11.9 c 80 -65.3 129.7 -83 225.1 -66.6 c 123.5 21.2 228.6 129.3 247.2 265.2 z" stroke-linecap="round" />
</g>
		<g transform="matrix(0.2 0 0 0.2 -0.17 6.5)"  >
<path style="stroke: none; stroke-width: 1; stroke-dasharray: none; stroke-linecap: butt; stroke-dashoffset: 0; stroke-linejoin: miter; stroke-miterlimit: 4; fill: rgb(208,151,62); fill-rule: nonzero; opacity: 1;"  transform=" translate(-511.15, -545.29)" d="M 780.3 190.7 c 67.3 57.6 111.3 146.7 111.3 245.9 c 0 84.7 -20.3 121.2 -105.1 191.9 c -4.8 4 -27.4 24.2 -33.6 29.4 c -43.1 36 -76.7 64.7 -98.5 97.3 c -91.5 136.6 -317 192.1 -449 97.6 c -46.6 -33.4 -69.7 -63.6 -74.7 -97 c 133.4 86.3 360 34.7 449.6 -99 c 21.8 -32.6 48.1 -59 91.2 -95.1 c 6.2 -5.2 28.7 -23.7 33.5 -27.7 c 84.8 -70.7 108.7 -117.1 108.7 -201.8 c 0 -50.9 -12.2 -99 -33.4 -141.5 z" stroke-linecap="round" />
</g>
		<g transform="matrix(0.2 0 0 0.2 0.18 -0.38)"  >
<path style="stroke: none; stroke-width: 1; stroke-dasharray: none; stroke-linecap: butt; stroke-dashoffset: 0; stroke-linejoin: miter; stroke-miterlimit: 4; fill: rgb(51,51,51); fill-rule: nonzero; opacity: 1;"  transform=" translate(-512.93, -510.03)" d="M 646 121.5 C 781.3 144.7 900 280 900 435.1 c 0 84.3 -33.9 134.2 -118.4 204.6 c -4.8 4 -27.3 22.5 -33.5 27.7 c -43.2 36.1 -69.5 62.6 -91.5 95.4 c -91 135.8 -324.6 186.5 -455.6 92.6 c -89.6 -64.2 -91.9 -116.7 -44.5 -202.6 c 14 -25.4 17.2 -31.5 21.1 -42.1 c 7.1 -19 7.6 -36.2 4.5 -83.5 c -5.1 -78.1 -0.5 -119.6 29.5 -171.8 c 27 -47 56.6 -75 97.6 -98.3 c 8.4 -4.8 13.9 -7.6 30.2 -15.9 c 28.1 -14.3 41.2 -22 55.9 -34.2 c 8.4 -7 10.8 -9 15 -12.3 c 79.4 -64.9 140.9 -89.4 235.7 -73.2 z m -5.4 31.6 c -83.9 -14.4 -137.1 6.7 -210.2 66.4 c -4.1 3.3 -6.4 5.3 -14.8 12.2 c -17.1 14.1 -31.7 22.8 -61.8 38.1 c -15.8 8 -21.1 10.8 -28.8 15.2 c -36.2 20.6 -61.6 44.6 -85.6 86.4 c -26 45.2 -30 81.5 -25.3 153.8 c 3.4 52.2 2.9 71.9 -6.4 96.8 c -4.8 12.8 -8.2 19.3 -23.1 46.4 c -40.4 73.2 -38.9 108.1 35.2 161.1 c 116 83.1 329.2 36.8 410.4 -84.4 c 24 -35.8 52.2 -64.2 97.5 -102.1 c 6.3 -5.3 28.9 -23.9 33.5 -27.7 c 78 -65 106.9 -107.6 106.9 -180.1 c -0.2 -139.3 -107.3 -261.5 -227.5 -282.1 z" stroke-linecap="round" />
</g>
		<g transform="matrix(0.2 0 0 0.2 35.39 -34.18)"  >
<path style="stroke: none; stroke-width: 1; stroke-dasharray: none; stroke-linecap: butt; stroke-dashoffset: 0; stroke-linejoin: miter; stroke-miterlimit: 4; fill: rgb(176,112,29); fill-rule: nonzero; opacity: 1;"  transform=" translate(-693.2, -337)" d="M 693.2 337 m -24 0 a 24 24 0 1 0 48 0 a 24 24 0 1 0 -48 0 Z" stroke-linecap="round" />
</g>
		<g transform="matrix(0.2 0 0 0.2 -38.4 -18.07)"  >
<path style="stroke: none; stroke-width: 1; stroke-dasharray: none; stroke-linecap: butt; stroke-dashoffset: 0; stroke-linejoin: miter; stroke-miterlimit: 4; fill: rgb(176,112,29); fill-rule: nonzero; opacity: 1;"  transform=" translate(-315.4, -419.5)" d="M 315.4 419.5 m -16 0 a 16 16 0 1 0 32 0 a 16 16 0 1 0 -32 0 Z" stroke-linecap="round" />
</g>
		<g transform="matrix(0.2 0 0 0.2 -13.61 41.58)"  >
<path style="stroke: none; stroke-width: 1; stroke-dasharray: none; stroke-linecap: butt; stroke-dashoffset: 0; stroke-linejoin: miter; stroke-miterlimit: 4; fill: rgb(176,112,29); fill-rule: nonzero; opacity: 1;"  transform=" translate(-442.3, -724.9)" d="M 442.3 724.9 m -32 0 a 32 32 0 1 0 64 0 a 32 32 0 1 0 -64 0 Z" stroke-linecap="round" />
</g>
</g>
</g>
</svg>