<?xml version="1.0" encoding="UTF-8" standalone="no" ?>
<!DOCTYPE svg PUBLIC "-//W3C//DTD SVG 1.1//EN" "http://www.w3.org/Graphics/SVG/1.1/DTD/svg11.dtd">
<svg xmlns="http://www.w3.org/2000/svg" xmlns:xlink="http://www.w3.org/1999/xlink" version="1.1" width="161" height="174" viewBox="0 0 161 174" xml:space="preserve">
<desc>Created with Fabric.js 3.6.3</desc>
<defs>
</defs>
<g transform="matrix(1 0 0 1 81 87)"  >
<g style=""   >
		<g transform="matrix(0.2 0 0 0.2 -0.08 0.19)"  >
<path style="stroke: none; stroke-width: 1; stroke-dasharray: none; stroke-linecap: butt; stroke-dashoffset: 0; stroke-linejoin: miter; stroke-miterlimit: 4; fill: rgb(102,51,51); fill-rule: nonzero; opacity: 1;"  transform=" translate(-511.6, -512.96)" d="M 905 223.4 c 11.8 0 21.3 9.6 21.3 21.3 c 0 11.8 -9.5 21.3 -21.3 21.3 c -19.2 0 -34.8 15.6 -34.8 34.8 c 0 66.4 -48.7 121.6 -112.2 131.8 v 90.9 c 31.8 5.1 59.8 21.5 79.9 44.9 c 20.1 23.4 32.3 53.8 32.3 86.9 c 0 19.2 15.6 34.8 34.8 34.8 c 11.8 0 21.3 9.5 21.3 21.3 s -9.5 21.3 -21.3 21.3 c -21.3 0 -40.7 -8.7 -54.7 -22.7 s -22.7 -33.4 -22.7 -54.8 c 0 -42.8 -29.7 -78.7 -69.5 -88.3 v 138.6 c 31.8 5.1 59.8 21.5 79.9 44.9 c 20.1 23.4 32.3 53.8 32.3 86.9 c 0 19.2 15.6 34.8 34.8 34.8 c 11.8 0 21.3 9.6 21.3 21.3 s -9.5 21.3 -21.3 21.3 c -21.3 0 -40.7 -8.7 -54.7 -22.7 s -22.7 -33.4 -22.7 -54.8 c 0 -42.8 -29.7 -78.7 -69.6 -88.3 c -2.1 116 -97.1 209.7 -213.6 209.7 h -65.9 c -116.5 0 -211.5 -93.7 -213.6 -209.7 c -19.9 4.8 -37.3 16.2 -49.7 31.7 c -12.4 15.5 -19.8 35.2 -19.8 56.6 c 0 42.7 -34.7 77.5 -77.4 77.5 c -11.8 0 -21.3 -9.6 -21.3 -21.3 c 0 -11.8 9.5 -21.3 21.3 -21.3 c 9.6 0 18.3 -3.9 24.6 -10.2 c 6.3 -6.3 10.2 -15 10.2 -24.6 c 0 -66.4 48.7 -121.6 112.2 -131.8 V 552.3 c -19.9 4.8 -37.3 16.2 -49.7 31.8 c -12.4 15.6 -19.8 35.2 -19.8 56.6 c 0 42.7 -34.7 77.5 -77.4 77.5 c -11.8 0 -21.3 -9.6 -21.3 -21.3 c 0 -11.8 9.5 -21.3 21.3 -21.3 c 9.6 0 18.3 -3.9 24.6 -10.2 c 6.3 -6.3 10.2 -15 10.2 -24.6 c 0 -66.4 48.7 -121.6 112.2 -131.8 v -76.1 C 201.7 422.7 153 367.5 153 301.1 c 0 -19.2 -15.6 -34.8 -34.8 -34.8 c -11.8 0 -21.3 -9.5 -21.3 -21.3 s 9.5 -21.3 21.3 -21.3 c 42.7 0 77.4 34.8 77.4 77.5 c 0 50.1 40.8 90.9 90.9 90.9 h 10.2 c 6.3 -64.3 40.9 -120.3 91.1 -155.6 v -24.2 c 0 -22.2 8.6 -43 24.3 -58.7 l 0.1 -0.2 c -23.9 -11.2 -42.8 -31.8 -51.5 -58 c -3.7 -11.2 2.4 -23.3 13.6 -27 c 11.2 -3.7 23.3 2.4 27 13.6 c 6.7 20.3 24.2 34.6 44.9 37.4 l 6.8 -6.8 c 32.4 -32.4 85 -32.4 117.4 0 l 6.8 6.8 c 20.7 -2.8 38.3 -17.1 44.9 -37.4 c 3.7 -11.2 15.8 -17.3 27 -13.6 c 11.2 3.7 17.3 15.7 13.6 27 c -8.7 26.2 -27.6 46.9 -51.5 58 l 0.2 0.1 c 15.7 15.7 24.3 36.5 24.3 58.7 v 24.2 c 50.2 35.3 84.8 91.4 91.1 155.6 H 737 c 50.1 0 90.9 -40.8 90.9 -90.9 c -0.3 -43 34.5 -77.7 77.1 -77.7 z" stroke-linecap="round" />
</g>
		<g transform="matrix(0.2 0 0 0.2 -0.11 31.89)"  >
<path style="stroke: none; stroke-width: 1; stroke-dasharray: none; stroke-linecap: butt; stroke-dashoffset: 0; stroke-linejoin: miter; stroke-miterlimit: 4; fill: rgb(200,94,76); fill-rule: nonzero; opacity: 1;"  transform=" translate(-511.45, -675.3)" d="M 715.4 434.4 v 310.8 c 0 94.3 -76.7 171 -171 171 h -65.9 c -94.3 0 -171 -76.7 -171 -171 V 434.4 h 120.1 c 34.4 0 62.5 28 62.5 62.5 v 328.3 c 0 11.8 9.6 21.3 21.3 21.3 s 21.3 -9.6 21.3 -21.3 V 496.9 c 0 -34.5 28 -62.5 62.5 -62.5 h 120.2 z" stroke-linecap="round" />
</g>
		<g transform="matrix(0.2 0 0 0.2 -0.12 -34.28)"  >
<path style="stroke: none; stroke-width: 1; stroke-dasharray: none; stroke-linecap: butt; stroke-dashoffset: 0; stroke-linejoin: miter; stroke-miterlimit: 4; fill: rgb(254,104,101); fill-rule: nonzero; opacity: 1;"  transform=" translate(-511.4, -336.5)" d="M 683.5 391.7 h -88.3 c -34.2 0 -64.6 16.4 -83.8 41.7 c -19.2 -25.3 -49.6 -41.7 -83.8 -41.7 h -88.3 c 10.5 -85.6 83.7 -152.1 172.1 -152.1 S 673 306.1 683.5 391.7 z" stroke-linecap="round" />
</g>
		<g transform="matrix(0.2 0 0 0.2 -0.12 -66.46)"  >
<path style="stroke: none; stroke-width: 1; stroke-dasharray: none; stroke-linecap: butt; stroke-dashoffset: 0; stroke-linejoin: miter; stroke-miterlimit: 4; fill: rgb(249,220,178); fill-rule: nonzero; opacity: 1;"  transform=" translate(-511.4, -171.71)" d="M 592.7 211.9 v 0.9 c -25.1 -10.2 -52.5 -15.9 -81.3 -15.9 c -28.7 0 -56.2 5.7 -81.3 15.9 v -0.9 c 0 -10.8 4.2 -20.9 11.8 -28.5 l 41 -41 c 15.7 -15.7 41.3 -15.7 57 0 l 41 41 c 7.6 7.7 11.8 17.8 11.8 28.5 z" stroke-linecap="round" />
</g>
</g>
</g>
</svg>